<svg width="16" height="16" viewBox="0 0 16 16" fill="none" xmlns="http://www.w3.org/2000/svg">
<path d="M10.707 14.364C10.8945 14.1765 10.9998 13.9222 10.9998 13.657C10.9998 13.3918 10.8945 13.1375 10.707 12.95L5.757 8.00001L10.707 3.05001C10.8892 2.86141 10.99 2.60881 10.9877 2.34661C10.9854 2.08441 10.8802 1.8336 10.6948 1.64819C10.5094 1.46279 10.2586 1.35762 9.9964 1.35534C9.73421 1.35306 9.4816 1.45385 9.293 1.63601L3.636 7.29301C3.44853 7.48054 3.34322 7.73485 3.34322 8.00001C3.34322 8.26518 3.44853 8.51948 3.636 8.70701L9.293 14.364C9.48053 14.5515 9.73484 14.6568 10 14.6568C10.2652 14.6568 10.5195 14.5515 10.707 14.364Z" fill="#1B1B16"/>
</svg>
