<svg width="80" height="89" viewBox="0 0 80 89" fill="none" xmlns="http://www.w3.org/2000/svg">
<path d="M71.1111 8.9H52.5333C50.6667 3.738 45.7778 0 40 0C34.2222 0 29.3333 3.738 27.4667 8.9H8.88889C6.53141 8.9 4.27049 9.83768 2.60349 11.5067C0.936505 13.1758 0 15.4396 0 17.8V80.1C0 82.4604 0.936505 84.7242 2.60349 86.3932C4.27049 88.0623 6.53141 89 8.88889 89H71.1111C73.4686 89 75.7295 88.0623 77.3965 86.3932C79.0635 84.7242 80 82.4604 80 80.1V17.8C80 15.4396 79.0635 13.1758 77.3965 11.5067C75.7295 9.83768 73.4686 8.9 71.1111 8.9ZM40 8.9C41.1787 8.9 42.3092 9.36884 43.1427 10.2034C43.9762 11.0379 44.4444 12.1698 44.4444 13.35C44.4444 14.5302 43.9762 15.6621 43.1427 16.4966C42.3092 17.3312 41.1787 17.8 40 17.8C38.8213 17.8 37.6908 17.3312 36.8573 16.4966C36.0238 15.6621 35.5556 14.5302 35.5556 13.35C35.5556 12.1698 36.0238 11.0379 36.8573 10.2034C37.6908 9.36884 38.8213 8.9 40 8.9ZM17.7778 26.7H62.2222V17.8H71.1111V80.1H8.88889V17.8H17.7778V26.7Z" fill="#1B1B16"/>
</svg>
