<svg width="80" height="80" viewBox="0 0 80 80" fill="none" xmlns="http://www.w3.org/2000/svg">
<rect x="1.5" y="1.5" width="77" height="77" rx="8.5" stroke="#1B1B16" stroke-width="3"/>
<path d="M20.8 22.5165C20.8001 22.1974 20.8638 21.8814 20.9874 21.5872C21.1111 21.293 21.2921 21.0263 21.52 20.8029C24.1357 18.2389 27.6301 16.7679 31.292 16.6894C34.954 16.6109 38.5082 17.9309 41.2312 20.3805L42.0737 21.1677C43.8243 22.7016 46.0725 23.5472 48.4 23.5472C50.7276 23.5472 52.9758 22.7016 54.7264 21.1677L55.3241 20.6229C56.7881 19.4637 58.9889 20.3901 59.1881 22.2453L59.2001 22.5165V44.1165C59.2 44.4357 59.1363 44.7516 59.0127 45.0459C58.889 45.3401 58.708 45.6067 58.4801 45.8301C55.8644 48.3942 52.37 49.8652 48.7081 49.9436C45.0461 50.0221 41.4919 48.7022 38.7689 46.2525L37.9264 45.4653C36.2309 43.9797 34.0667 43.1382 31.813 43.0882C29.5593 43.0381 27.3598 43.7828 25.6 45.1917V60.9165C25.5994 61.5282 25.3651 62.1166 24.9452 62.5614C24.5253 63.0062 23.9514 63.2739 23.3407 63.3097C22.73 63.3456 22.1287 63.1469 21.6597 62.7543C21.1906 62.3617 20.8891 61.8048 20.8168 61.1973L20.8 60.9165V22.5165Z" fill="#1B1B16"/>
</svg>
