<svg width="80" height="100" viewBox="0 0 80 100" fill="none" xmlns="http://www.w3.org/2000/svg">
<path d="M45.0025 55.0012H55.0025C56.3286 55.0012 57.6003 55.528 58.538 56.4657C59.4757 57.4034 60.0025 58.6752 60.0025 60.0013C60.0025 61.3275 59.4757 62.5993 58.538 63.537C57.6003 64.4747 56.3286 65.0015 55.0025 65.0015H40.0025C39.3453 65.0034 38.6943 64.8755 38.0867 64.6249C37.4792 64.3743 36.9272 64.0061 36.4626 63.5414C35.9979 63.0767 35.6296 62.5247 35.3791 61.9171C35.1285 61.3096 35.0005 60.6585 35.0025 60.0013V40.0009C35.0025 38.6748 35.5293 37.403 36.467 36.4653C37.4047 35.5276 38.6764 35.0008 40.0025 35.0008C41.3286 35.0008 42.6003 35.5276 43.538 36.4653C44.4757 37.403 45.0025 38.6748 45.0025 40.0009V55.0012ZM9.34752 34.3058C8.20508 33.7759 7.21445 32.9669 6.46699 31.9534C5.71953 30.9398 5.23932 29.7544 5.07063 28.5064C4.90193 27.2584 5.05021 25.988 5.50176 24.8124C5.95332 23.6368 6.69362 22.5938 7.65439 21.7797C8.61516 20.9655 9.76547 20.4064 10.9992 20.1539C12.233 19.9014 13.5104 19.9636 14.7138 20.3348C15.9172 20.706 17.0077 21.3743 17.8848 22.278C18.7619 23.1817 19.3973 24.2916 19.7325 25.5056C21.5347 24.4465 23.4171 23.5304 25.3625 22.7655C23.1758 21.246 21.5315 19.0678 20.6692 16.5485C19.8068 14.0291 19.7715 11.3002 20.5684 8.75938C21.3653 6.21856 22.9527 3.99861 25.0994 2.42301C27.246 0.847414 29.8397 -0.00148856 32.5025 1.95945e-06H47.5025C50.1653 -0.00148856 52.759 0.847414 54.9056 2.42301C57.0523 3.99861 58.6397 6.21856 59.4366 8.75938C60.2335 11.3002 60.1982 14.0291 59.3358 16.5485C58.4735 19.0678 56.8292 21.246 54.6425 22.7655C56.5958 23.5355 58.4725 24.4489 60.2725 25.5056C60.6077 24.2916 61.2431 23.1817 62.1202 22.278C62.9973 21.3743 64.0878 20.706 65.2912 20.3348C66.4946 19.9636 67.772 19.9014 69.0058 20.1539C70.2395 20.4064 71.3898 20.9655 72.3506 21.7797C73.3114 22.5938 74.0517 23.6368 74.5032 24.8124C74.9548 25.988 75.1031 27.2584 74.9344 28.5064C74.7657 29.7544 74.2855 30.9398 73.538 31.9534C72.7906 32.9669 71.7999 33.7759 70.6575 34.3058C75.5469 40.1401 78.67 47.2485 79.6602 54.7961C80.6503 62.3438 79.4662 70.0172 76.2471 76.9153C73.028 83.8134 67.9074 89.6497 61.4868 93.7388C55.0662 97.8279 47.6121 100 40 100C32.3879 100 24.9338 97.8279 18.5132 93.7388C12.0926 89.6497 6.97201 83.8134 3.75288 76.9153C0.533753 70.0172 -0.65028 62.3438 0.339838 54.7961C1.32996 47.2485 4.45811 40.1401 9.34752 34.3058ZM40.0025 90.002C47.959 90.002 55.5896 86.8412 61.2157 81.215C66.8418 75.5888 70.0025 67.958 70.0025 60.0013C70.0025 52.0447 66.8418 44.4139 61.2157 38.7877C55.5896 33.1615 47.959 30.0007 40.0025 30.0007C32.046 30.0007 24.4154 33.1615 18.7893 38.7877C13.1632 44.4139 10.0025 52.0447 10.0025 60.0013C10.0025 67.958 13.1632 75.5888 18.7893 81.215C24.4154 86.8412 32.046 90.002 40.0025 90.002ZM32.5025 10.0002C31.8395 10.0002 31.2036 10.2636 30.7347 10.7325C30.2659 11.2013 30.0025 11.8372 30.0025 12.5003C30.0025 13.1633 30.2659 13.7992 30.7347 14.2681C31.2036 14.7369 31.8395 15.0003 32.5025 15.0003H47.5025C48.1655 15.0003 48.8014 14.7369 49.2703 14.2681C49.7391 13.7992 50.0025 13.1633 50.0025 12.5003C50.0025 11.8372 49.7391 11.2013 49.2703 10.7325C48.8014 10.2636 48.1655 10.0002 47.5025 10.0002H32.5025Z" fill="#1B1B16"/>
</svg>
