<svg width="80" height="70" viewBox="0 0 80 70" fill="none" xmlns="http://www.w3.org/2000/svg">
<path d="M7.5 3.75V62.5H76.25C77.2446 62.5 78.1984 62.8951 78.9016 63.5984C79.6049 64.3016 80 65.2554 80 66.25C80 67.2446 79.6049 68.1984 78.9016 68.9016C78.1984 69.6049 77.2446 70 76.25 70H3.75C2.75544 70 1.80161 69.6049 1.09835 68.9016C0.395088 68.1984 0 67.2446 0 66.25L0 3.75C0 2.75544 0.395088 1.80161 1.09835 1.09835C1.80161 0.395088 2.75544 0 3.75 0C4.74456 0 5.69839 0.395088 6.40165 1.09835C7.10491 1.80161 7.5 2.75544 7.5 3.75ZM78.9 16.4L52.65 42.65C51.9469 43.3523 50.9938 43.7467 50 43.7467C49.0062 43.7467 48.0531 43.3523 47.35 42.65L35 30.3L21.4 43.9C20.6893 44.5632 19.7488 44.9245 18.7768 44.9077C17.8049 44.8909 16.8774 44.4974 16.19 43.81C15.5026 43.1226 15.1091 42.1951 15.0923 41.2232C15.0755 40.2512 15.4368 39.3107 16.1 38.6L32.35 22.35C33.0531 21.6477 34.0062 21.2533 35 21.2533C35.9938 21.2533 36.9469 21.6477 37.65 22.35L50 34.7L73.6 11.1C74.3107 10.4368 75.2512 10.0755 76.2232 10.0923C77.1951 10.1091 78.1226 10.5026 78.81 11.19C79.4974 11.8774 79.8909 12.8049 79.9077 13.7768C79.9245 14.7488 79.5632 15.6893 78.9 16.4Z" fill="#1B1B16"/>
</svg>
