<svg width="80" height="80" viewBox="0 0 80 80" fill="none" xmlns="http://www.w3.org/2000/svg">
<rect x="1.5" y="1.5" width="77" height="77" rx="8.5" stroke="#1B1B16" stroke-width="3"/>
<path d="M53.8666 64.2666C51.9599 64.2666 50.3283 63.5883 48.9717 62.2317C47.615 60.8751 46.9356 59.2423 46.9333 57.3333V22.6667C46.9333 20.76 47.6127 19.1284 48.9717 17.7717C50.3306 16.4151 51.9622 15.7357 53.8666 15.7333C55.771 15.731 57.4038 16.4105 58.765 17.7717C60.1262 19.133 60.8045 20.7646 60.7999 22.6667V57.3333C60.7999 59.24 60.1216 60.8728 58.765 62.2317C57.4084 63.5906 55.7756 64.269 53.8666 64.2666ZM26.1333 64.2666C24.2266 64.2666 22.595 63.5883 21.2383 62.2317C19.8817 60.8751 19.2023 59.2423 19.2 57.3333V22.6667C19.2 20.76 19.8794 19.1284 21.2383 17.7717C22.5973 16.4151 24.2289 15.7357 26.1333 15.7333C28.0376 15.731 29.6704 16.4105 31.0317 17.7717C32.3929 19.133 33.0712 20.7646 33.0666 22.6667V57.3333C33.0666 59.24 32.3883 60.8728 31.0317 62.2317C29.6751 63.5906 28.0423 64.269 26.1333 64.2666Z" fill="#1B1B16"/>
</svg>
