<svg width="80" height="80" viewBox="0 0 80 80" fill="none" xmlns="http://www.w3.org/2000/svg">
<rect x="1.5" y="1.5" width="77" height="77" rx="8.5" stroke="#1B1B16" stroke-width="3"/>
<path d="M21.3333 64C19.8667 64 18.6116 63.4782 17.568 62.4347C16.5244 61.3911 16.0018 60.1351 16 58.6667V21.3333C16 19.8667 16.5227 18.6116 17.568 17.568C18.6133 16.5244 19.8684 16.0018 21.3333 16H58.6667C60.1333 16 61.3893 16.5227 62.4347 17.568C63.48 18.6133 64.0018 19.8684 64 21.3333V58.6667C64 60.1333 63.4782 61.3893 62.4347 62.4347C61.3911 63.48 60.1351 64.0018 58.6667 64H21.3333Z" fill="#B4473B"/>
</svg>
