<svg width="80" height="80" viewBox="0 0 80 80" fill="none" xmlns="http://www.w3.org/2000/svg">
<path d="M28.0647 73.7018C28.3698 74.0326 28.532 74.4703 28.5161 74.92C28.5002 75.3696 28.3075 75.7949 27.9799 76.1033L24.2964 79.5477C23.9672 79.8528 23.5306 80.0151 23.082 79.9989C22.6335 79.9827 22.2096 79.7893 21.9034 79.4612L0.451673 56.3424C0.146829 56.0114 -0.0150877 55.5735 0.0011078 55.1239C0.0173033 54.6742 0.210302 54.2491 0.538165 53.9409L4.2268 50.5016C4.55592 50.1964 4.9926 50.0342 5.44114 50.0504C5.88969 50.0666 6.31351 50.26 6.61975 50.5881L28.0647 73.7018ZM55.4369 30.2014C55.7417 30.5324 55.9037 30.9702 55.8875 31.4199C55.8713 31.8696 55.6783 32.2947 55.3504 32.6028L32.1671 54.2598C31.838 54.5649 31.4013 54.7272 30.9528 54.711C30.5042 54.6948 30.0804 54.5014 29.7742 54.1733L24.2404 48.2019C23.9355 47.871 23.7736 47.4331 23.7898 46.9834C23.806 46.5338 23.999 46.1087 24.3269 45.8005L47.5051 24.1436C47.6677 23.9921 47.8586 23.8742 48.0668 23.7965C48.275 23.7189 48.4965 23.6831 48.7186 23.6911C48.9407 23.6991 49.159 23.7509 49.3611 23.8434C49.5632 23.9358 49.7451 24.0672 49.8963 24.2301L55.4369 30.2014ZM35.9524 66.3296C36.5867 67.0131 36.5477 68.0934 35.8659 68.7311L32.1773 72.1738C31.8482 72.479 31.4115 72.6412 30.963 72.625C30.5144 72.6088 30.0906 72.4154 29.7844 72.0873L8.3445 48.9685C8.03944 48.6378 7.87723 48.2 7.89311 47.7503C7.90898 47.3007 8.10167 46.8755 8.4293 46.5671L12.1111 43.126C12.4403 42.8209 12.877 42.6586 13.3255 42.6748C13.774 42.691 14.1979 42.8844 14.5041 43.2125L35.9524 66.3296ZM71.6737 31.0307C71.9783 31.3619 72.1399 31.7999 72.1234 32.2496C72.1069 32.6992 71.9136 33.1242 71.5855 33.4321L67.8986 36.8749C67.5696 37.1808 67.1326 37.3437 66.6837 37.3278C66.2347 37.3119 65.8104 37.1185 65.5039 36.7901L44.0606 13.6763C43.7552 13.3458 43.5927 12.908 43.6086 12.4582C43.6244 12.0084 43.8174 11.5831 44.1454 11.2749L47.8426 7.82371C48.0052 7.67224 48.1961 7.55431 48.4043 7.47667C48.6125 7.39903 48.834 7.3632 49.0561 7.37124C49.2782 7.37927 49.4965 7.43101 49.6986 7.52349C49.9007 7.61597 50.0826 7.74738 50.2338 7.9102L71.6737 31.0307ZM79.5495 23.6704C79.8537 24.002 80.0151 24.44 79.9989 24.8897C79.9827 25.3394 79.7902 25.7646 79.4631 26.0735L75.7829 29.5146C75.6204 29.6661 75.4296 29.7842 75.2214 29.862C75.0132 29.9398 74.7918 29.9757 74.5697 29.9679C74.3476 29.96 74.1292 29.9084 73.9271 29.8161C73.725 29.7237 73.543 29.5925 73.3916 29.4298L51.9518 6.30586C51.6475 5.97444 51.4857 5.53659 51.5016 5.08692C51.5175 4.63725 51.7096 4.21188 52.0366 3.90273L55.7201 0.454924C55.8824 0.303191 56.073 0.18499 56.2811 0.107105C56.4891 0.0292203 56.7105 -0.00681686 56.9325 0.00106152C57.1545 0.00893991 57.3728 0.0605788 57.5748 0.153015C57.7768 0.245452 57.9586 0.376867 58.1097 0.53972L79.5495 23.6704Z" fill="#1B1B16"/>
</svg>
